<svg width="18" height="14" viewBox="0 0 18 14" fill="none" xmlns="http://www.w3.org/2000/svg">
<path d="M17.364 7.70698C17.5515 7.51945 17.6568 7.26514 17.6568 6.99998C17.6568 6.73481 17.5515 6.4805 17.364 6.29298L11.707 0.635977C11.6148 0.540466 11.5044 0.464284 11.3824 0.411875C11.2604 0.359466 11.1292 0.33188 10.9964 0.330726C10.8636 0.329572 10.732 0.354874 10.6091 0.405155C10.4862 0.455436 10.3745 0.529689 10.2806 0.623582C10.1867 0.717474 10.1125 0.829126 10.0622 0.952022C10.0119 1.07492 9.98661 1.2066 9.98776 1.33938C9.98892 1.47216 10.0165 1.60338 10.0689 1.72538C10.1213 1.84738 10.1975 1.95773 10.293 2.04998L14.243 5.99998L1.00001 5.99998C0.734797 5.99998 0.480442 6.10533 0.292906 6.29287C0.105369 6.48041 1.30715e-05 6.73476 1.30599e-05 6.99998C1.30483e-05 7.26519 0.105369 7.51955 0.292905 7.70708C0.480442 7.89462 0.734797 7.99998 1.00001 7.99998L14.243 7.99998L10.293 11.95C10.1109 12.1386 10.0101 12.3912 10.0123 12.6534C10.0146 12.9156 10.1198 13.1664 10.3052 13.3518C10.4906 13.5372 10.7414 13.6424 11.0036 13.6447C11.2658 13.6469 11.5184 13.5461 11.707 13.364L17.364 7.70698Z" fill="#1F2937"/>
</svg>
