<svg width="18" height="14" viewBox="0 0 18 14" fill="none" xmlns="http://www.w3.org/2000/svg">
<path d="M0.292786 6.26843C0.105315 6.45595 8.26925e-08 6.71026 7.95305e-08 6.97543C7.63684e-08 7.24059 0.105315 7.4949 0.292786 7.68243L5.94979 13.3394C6.04203 13.4349 6.15238 13.5111 6.27438 13.5635C6.39639 13.6159 6.52761 13.6435 6.66039 13.6447C6.79316 13.6458 6.92484 13.6205 7.04774 13.5702C7.17064 13.52 7.28229 13.4457 7.37618 13.3518C7.47007 13.2579 7.54433 13.1463 7.59461 13.0234C7.64489 12.9005 7.67019 12.7688 7.66904 12.636C7.66788 12.5032 7.6403 12.372 7.58789 12.25C7.53548 12.128 7.4593 12.0177 7.36379 11.9254L3.41379 7.97543L16.6568 7.97543C16.922 7.97543 17.1764 7.87007 17.3639 7.68253C17.5514 7.495 17.6568 7.24064 17.6568 6.97543C17.6568 6.71021 17.5514 6.45586 17.3639 6.26832C17.1764 6.08078 16.922 5.97543 16.6568 5.97543L3.41379 5.97543L7.36379 2.02543C7.54594 1.83682 7.64674 1.58422 7.64446 1.32203C7.64218 1.05983 7.53701 0.809016 7.35161 0.623608C7.1662 0.4382 6.91538 0.33303 6.65319 0.330751C6.39099 0.328473 6.13839 0.429267 5.94979 0.611425L0.292786 6.26843Z" fill="#1F2937"/>
</svg>
